<svg id="Capa_1" enable-background="new 0 0 502 502" height="512" viewBox="0 0 502 502" width="512" xmlns="http://www.w3.org/2000/svg" xmlns:xlink="http://www.w3.org/1999/xlink"><linearGradient id="SVGID_1_" gradientUnits="userSpaceOnUse" x1="251" x2="251" y1="366.341" y2="45.292"><stop offset="0" stop-color="#b1e6ee"/><stop offset="1" stop-color="#3cc8db"/></linearGradient><linearGradient id="SVGID_2_" gradientUnits="userSpaceOnUse" x1="251" x2="251" y1="456.708" y2="137.831"><stop offset="0" stop-color="#77718a"/><stop offset="1" stop-color="#4f4c5f"/></linearGradient><linearGradient id="lg1"><stop offset="0" stop-color="#fd869c"/><stop offset="1" stop-color="#fdb0bf"/></linearGradient><linearGradient id="SVGID_3_" gradientUnits="userSpaceOnUse" x1="138.61" x2="138.61" xlink:href="#lg1" y1="236.279" y2="192.101"/><linearGradient id="SVGID_4_" gradientUnits="userSpaceOnUse" x1="251" x2="251" xlink:href="#lg1" y1="334.108" y2="236.279"/><linearGradient id="SVGID_5_" gradientUnits="userSpaceOnUse" x1="213.54" x2="213.54" xlink:href="#lg1" y1="215.489" y2="171.311"/><linearGradient id="SVGID_6_" gradientUnits="userSpaceOnUse" x1="363.39" x2="363.39" xlink:href="#lg1" y1="236.279" y2="192.101"/><linearGradient id="SVGID_7_" gradientUnits="userSpaceOnUse" x1="288.46" x2="288.46" xlink:href="#lg1" y1="215.489" y2="171.311"/><g><path d="m101.15 366.341c-238.03-214.93-1.03-418.259 149.85-270.8 150.88-147.46 387.88 55.87 149.85 270.8z" fill="url(#SVGID_1_)"/><path d="m400.85 196.081v170.26c-29.64 26.76-66.63 53.7-112.08 80.16-23.37 13.61-52.17 13.61-75.54 0-45.45-26.46-82.44-53.4-112.08-80.16v-170.26c0-10.34 4.19-19.71 10.97-26.49s16.14-10.97 26.49-10.97c20.69 0 37.46 16.77 37.46 37.46v-20.79c0-10.35 4.19-19.71 10.98-26.49 6.78-6.78 16.15-10.97 26.49-10.97 20.69 0 37.46 16.77 37.46 37.46 0-10.35 4.19-19.71 10.97-26.49s16.15-10.97 26.49-10.97c20.69 0 37.47 16.77 37.47 37.46v20.79c0-10.34 4.19-19.71 10.97-26.49s16.14-10.97 26.49-10.97c20.69 0 37.46 16.77 37.46 37.46z" fill="url(#SVGID_2_)"/><ellipse cx="138.61" cy="214.19" fill="url(#SVGID_3_)" rx="16.52" ry="22.089"/><path d="m251 327.702c23.177 0 43.684 2.69 59.722 5.829 18.717 3.663 36.148-10.569 36.148-29.641v-.313c0-12.953-8.298-24.346-20.525-28.622-27.873-9.747-31.082-38.675-75.345-38.675s-47.472 28.928-75.345 38.675c-12.227 4.276-20.525 15.669-20.525 28.622v.313c0 19.072 17.431 33.303 36.148 29.641 16.038-3.139 36.545-5.829 59.722-5.829z" fill="url(#SVGID_4_)"/><ellipse cx="213.54" cy="193.4" fill="url(#SVGID_5_)" rx="16.52" ry="22.089"/><ellipse cx="363.39" cy="214.19" fill="url(#SVGID_6_)" rx="16.52" ry="22.089"/><ellipse cx="288.46" cy="193.4" fill="url(#SVGID_7_)" rx="16.52" ry="22.089"/></g></svg>